<svg width="19" height="20" viewBox="0 0 19 20" fill="none" xmlns="http://www.w3.org/2000/svg">
<path d="M8.83417 5H10.8044V15H8.83417V5ZM12.7747 9H14.7449V15H12.7747V9ZM4.89365 11H6.86391V15H4.89365V11ZM12.7747 2H2.92339V18H16.7152V6H12.7747V2ZM0.953125 0.992C0.953125 0.444 1.39348 0 1.93727 0H13.7598L18.6855 5V18.993C18.6864 19.1243 18.6618 19.2545 18.6131 19.3762C18.5645 19.4979 18.4926 19.6087 18.4018 19.7022C18.311 19.7957 18.2029 19.8701 18.0837 19.9212C17.9645 19.9723 17.8366 19.9991 17.7072 20H1.93136C1.67264 19.9982 1.42502 19.8931 1.24198 19.7075C1.05895 19.5219 0.955189 19.2706 0.953125 19.008V0.992Z" fill="#263B73"/>
</svg>
