<svg width="21" height="20" viewBox="0 0 21 20" fill="none" xmlns="http://www.w3.org/2000/svg">
<path d="M17.716 20H3.92414C3.14032 20 2.38861 19.6839 1.83436 19.1213C1.28012 18.5587 0.96875 17.7956 0.96875 17V1C0.96875 0.734784 1.07254 0.48043 1.25729 0.292893C1.44204 0.105357 1.69261 0 1.95388 0H15.7457C16.007 0 16.2575 0.105357 16.4423 0.292893C16.627 0.48043 16.7308 0.734784 16.7308 1V13H20.6714V17C20.6714 17.7956 20.36 18.5587 19.8057 19.1213C19.2515 19.6839 18.4998 20 17.716 20ZM16.7308 15V17C16.7308 17.2652 16.8346 17.5196 17.0194 17.7071C17.2041 17.8946 17.4547 18 17.716 18C17.9772 18 18.2278 17.8946 18.4126 17.7071C18.5973 17.5196 18.7011 17.2652 18.7011 17V15H16.7308ZM14.7606 18V2H2.93901V17C2.93901 17.2652 3.0428 17.5196 3.22755 17.7071C3.4123 17.8946 3.66287 18 3.92414 18H14.7606Z" fill="#263B73"/>
</svg>
