<svg width="40" height="40" viewBox="0 0 40 40" fill="none" xmlns="http://www.w3.org/2000/svg">
<circle cx="20" cy="20" r="20" fill="#E3E7F1"/>
<path d="M19.9984 28.6507C20.4572 28.6497 20.8971 28.4672 21.2219 28.143C21.5466 27.8188 21.7299 27.3792 21.7317 26.9203H18.265C18.2651 27.1478 18.31 27.373 18.3972 27.5831C18.4844 27.7931 18.6121 27.984 18.7731 28.1447C18.9341 28.3054 19.1251 28.4328 19.3354 28.5196C19.5456 28.6064 19.7709 28.651 19.9984 28.6507ZM25.1984 23.4596V19.1336C25.1984 16.4773 23.7769 14.2544 21.2984 13.6655V13.0773C21.2984 12.7326 21.1614 12.4019 20.9176 12.1581C20.6738 11.9143 20.3431 11.7773 19.9984 11.7773C19.6536 11.7773 19.3229 11.9143 19.0791 12.1581C18.8353 12.4019 18.6984 12.7326 18.6984 13.0773V13.6655C16.2109 14.2536 14.7984 16.4685 14.7984 19.1336V23.4596L13.6798 24.5751C13.5576 24.6956 13.4739 24.8497 13.4395 25.0178C13.405 25.1859 13.4214 25.3605 13.4864 25.5193C13.5514 25.6781 13.6622 25.814 13.8047 25.9097C13.9472 26.0053 14.1149 26.0565 14.2865 26.0566H25.7006C25.8725 26.0572 26.0407 26.0067 26.1838 25.9115C26.3269 25.8163 26.4386 25.6808 26.5045 25.522C26.5705 25.3633 26.5878 25.1885 26.5542 25.0199C26.5207 24.8513 26.4378 24.6965 26.3161 24.5751L25.1984 23.4596Z" fill="url(#paint0_linear_2186_1705)"/>
<path d="M24.8177 18.5202C26.6587 18.5202 28.151 17.0278 28.151 15.1868C28.151 13.3459 26.6587 11.8535 24.8177 11.8535C22.9768 11.8535 21.4844 13.3459 21.4844 15.1868C21.4844 17.0278 22.9768 18.5202 24.8177 18.5202Z" fill="#EE3D96"/>
<path d="M24.8145 18.1505C26.4509 18.1505 27.7775 16.824 27.7775 15.1876C27.7775 13.5512 26.4509 12.2246 24.8145 12.2246C23.1781 12.2246 21.8516 13.5512 21.8516 15.1876C21.8516 16.824 23.1781 18.1505 24.8145 18.1505Z" stroke="#E3E7F1"/>
<defs>
<linearGradient id="paint0_linear_2186_1705" x1="19.9964" y1="11.7773" x2="19.9964" y2="28.6507" gradientUnits="userSpaceOnUse">
<stop stop-color="#4B5EAA"/>
<stop offset="0.616" stop-color="#263B73"/>
<stop offset="1" stop-color="#1C2D5A"/>
</linearGradient>
</defs>
</svg>
